UNKNOWN
nRows=4
nColumns=264

# SIMM Motion File Header:
name UNKNOWN
datacolumns 264
datarows 4
otherdata 1
range 0.45833000 0.48333000
endheader
time	pelvis_tx	pelvis_ty	pelvis_tz	pelvis_list	pelvis_rotation	pelvis_tilt	hip_flexion_r	hip_adduction_r	hip_rotation_r	knee_angle_r	ankle_angle_r	hip_flexion_l	hip_adduction_l	hip_rotation_l	knee_angle_l	ankle_angle_l	lumbar_extension	lumbar_bending	lumbar_rotation	subtalar_angle_r	mtp_angle_r	subtalar_angle_l	mtp_angle_l	midhip_tx	midhip_ty	midhip_tz	hip_r_tx	hip_r_ty	hip_r_tz	hip_l_tx	hip_l_ty	hip_l_tz	knee_r_tx	knee_r_ty	knee_r_tz	knee_l_tx	knee_l_ty	knee_l_tz	ankle_r_tx	ankle_r_ty	ankle_r_tz	ankle_l_tx	ankle_l_ty	ankle_l_tz	midasis_tx	midasis_ty	midasis_tz	asis_r_tx	asis_r_ty	asis_r_tz	asis_l_tx	asis_l_ty	asis_l_tz	psis_r_tx	psis_r_ty	psis_r_tz	psis_l_tx	psis_l_ty	psis_l_tz	epicondLat_r_tx	epicondLat_r_ty	epicondLat_r_tz	epicondLat_l_tx	epicondLat_l_ty	epicondLat_l_tz	epicondMed_r_tx	epicondMed_r_ty	epicondMed_r_tz	epicondMed_l_tx	epicondMed_l_ty	epicondMed_l_tz	malleolusLat_r_tx	malleolusLat_r_ty	malleolusLat_r_tz	malleolusLat_l_tx	malleolusLat_l_ty	malleolusLat_l_tz	malleolusMedv_r_tx	malleolusMedv_r_ty	malleolusMedv_r_tz	malleolusMedv_l_tx	malleolusMedv_l_ty	malleolusMedv_l_tz	neck_tx	neck_ty	neck_tz	subclavicle_r_tx	subclavicle_r_ty	subclavicle_r_tz	subclavicle_l_tx	subclavicle_l_ty	subclavicle_l_tz	sternalnotch_tx	sternalnotch_ty	sternalnotch_tz	xyphoidprocess_tx	xyphoidprocess_ty	xyphoidprocess_tz	thighwand_r_tx	thighwand_r_ty	thighwand_r_tz	thighwand_l_tx	thighwand_l_ty	thighwand_l_tz	upperleg1_r_tx	upperleg1_r_ty	upperleg1_r_tz	upperleg1_l_tx	upperleg1_l_ty	upperleg1_l_tz	upperleg2_r_tx	upperleg2_r_ty	upperleg2_r_tz	upperleg2_l_tx	upperleg2_l_ty	upperleg2_l_tz	shankwand_r_tx	shankwand_r_ty	shankwand_r_tz	shankwand_l_tx	shankwand_l_ty	shankwand_l_tz	lowerleg1_r_tx	lowerleg1_r_ty	lowerleg1_r_tz	lowerleg1_l_tx	lowerleg1_l_ty	lowerleg1_l_tz	toe_r_tx	toe_r_ty	toe_r_tz	toe_l_tx	toe_l_ty	toe_l_tz	ground_force_vx	ground_force_vy	ground_force_vz	ground_force_px	ground_force_py	ground_force_pz	ground_force_vx	ground_force_vy	ground_force_vz	ground_force_px	ground_force_py	ground_force_pz	ground_torque_x	ground_torque_y	ground_torque_z	ground_torque_x	ground_torque_y	ground_torque_z	ground_marker_px	ground_marker_py	ground_marker_pz	ground_marker_px	ground_marker_py	ground_marker_pz	ground_marker_px	ground_marker_py	ground_marker_pz	ground_marker_px	ground_marker_py	ground_marker_pz	ground_marker_px	ground_marker_py	ground_marker_pz	ground_marker_px	ground_marker_py	ground_marker_pz	ground_marker_px	ground_marker_py	ground_marker_pz	ground_marker_px	ground_marker_py	ground_marker_pz	ground_marker_px	ground_marker_py	ground_marker_pz	ground_marker_px	ground_marker_py	ground_marker_pz	ground_marker_px	ground_marker_py	ground_marker_pz	ground_marker_px	ground_marker_py	ground_marker_pz	ground_marker_px	ground_marker_py	ground_marker_pz	ground_marker_px	ground_marker_py	ground_marker_pz	ground_marker_px	ground_marker_py	ground_marker_pz	ground_marker_px	ground_marker_py	ground_marker_pz	ground_marker_px	ground_marker_py	ground_marker_pz	ground_marker_px	ground_marker_py	ground_marker_pz	ground_marker_px	ground_marker_py	ground_marker_pz	ground_marker_px	ground_marker_py	ground_marker_pz	ground_marker_px	ground_marker_py	ground_marker_pz	ground_marker_px	ground_marker_py	ground_marker_pz	ground_marker_px	ground_marker_py	ground_marker_pz	ground_marker_px	ground_marker_py	ground_marker_pz	ground_marker_px	ground_marker_py	ground_marker_pz	ground_marker_px	ground_marker_py	ground_marker_pz	ground_marker_px	ground_marker_py	ground_marker_pz	ground_marker_px	ground_marker_py	ground_marker_pz	ground_marker_px	ground_marker_py	ground_marker_pz	ground_marker_px	ground_marker_py	ground_marker_pz	ground_marker_px	ground_marker_py	ground_marker_pz	ground_marker_px	ground_marker_py	ground_marker_pz	ground_marker_px	ground_marker_py	ground_marker_pz	ground_marker_px	ground_marker_py	ground_marker_pz	ground_marker_px	ground_marker_py	ground_marker_pz	ground_marker_px	ground_marker_py	ground_marker_pz	ground_marker_px	ground_marker_py	ground_marker_pz	
      0.45833000	      0.29286990	      0.90866446	     -0.25271865	     -0.56172710	     -2.53669609	     -1.29134759	     -9.48054709	      2.56798089	     16.94052342	     -4.03540321	     16.80740930	     24.14649209	      0.23688008	      7.32745098	    -15.26747253	      3.09255018	     -4.91812945	      5.35475477	      2.79839872	      0.00000000	      0.00000000	      0.00000000	      0.00000000	      0.24086400	      0.87575200	     -0.24294800	      0.22821300	      0.87747300	     -0.15381500	      0.25351500	      0.87403200	     -0.33208200	      0.16384900	      0.46641800	     -0.18335800	      0.38809400	      0.46556600	     -0.31404200	      0.04683000	      0.07107200	     -0.21862700	      0.45185900	      0.08170100	     -0.31069500	      0.31035400	      0.94864900	     -0.24459700	      0.30805400	      0.94236700	     -0.12599700	      0.31265300	      0.95493100	     -0.36319700	      0.12420300	      0.99082500	     -0.21504300	      0.12980700	      0.98940900	     -0.29981300	      0.16873000	      0.45870500	     -0.12552600	      0.39984400	      0.47277600	     -0.37417900	      0.13663500	      0.46895000	     -0.23470400	      0.38717900	      0.44861900	     -0.26345100	      0.03793000	      0.06997500	     -0.17964500	      0.43246200	      0.07853700	     -0.34438100	      0.05443300	      0.08511000	     -0.24729300	      0.45588600	      0.09633200	     -0.28404000	      0.13818900	      1.41794500	     -0.22255200	      0.26946100	      1.33824300	     -0.18314600	      0.26449300	      1.34221800	     -0.28957000	      0.25010300	      1.34816900	     -0.23252500	      0.32698000	      1.18333100	     -0.25386700	      0.23565700	      0.55060400	     -0.05181800	      0.50355900	      0.59935900	     -0.32552800	      0.25030900	      0.61868300	     -0.11471400	      0.41839000	      0.62340800	     -0.36340400	      0.23440600	      0.53531300	     -0.14279600	      0.42758500	      0.53567900	     -0.35927200	      0.09930400	      0.18262500	     -0.08473300	      0.43283000	      0.21833700	     -0.42983700	      0.07348500	      0.16182400	     -0.15749600	      0.42463900	      0.17959500	     -0.35963600	      0.16441100	      0.03991100	     -0.19666200	      0.57009600	      0.06818800	     -0.33085000	     19.74928555	    625.20893209	    -31.21935746	      0.16726733	      0.00000000	     -0.19903140	      0.00000000	      0.00000000	      0.00000000	      0.55958551	      0.00000000	     -0.27272873	      0.00000000	      1.86179688	      0.00000000	      0.00000000	      0.00000000	      0.00000000	      0.24086386	      0.87575209	     -0.24294825	      0.22821262	      0.87747258	     -0.15381458	      0.25351509	      0.87403160	     -0.33208191	      0.16384892	      0.46641767	     -0.18335824	      0.38809413	      0.46556598	     -0.31404158	      0.04682977	      0.07107182	     -0.21862678	      0.45185867	      0.08170113	     -0.31069458	      0.31035361	      0.94864893	     -0.24459676	      0.30805421	      0.94236696	     -0.12599698	      0.31265301	      0.95493084	     -0.36319655	      0.12420338	      0.99082536	     -0.21504256	      0.12980729	      0.98940945	     -0.29981297	      0.16873047	      0.45870510	     -0.12552629	      0.39984420	      0.47277564	     -0.37417889	      0.13663536	      0.46894968	     -0.23470399	      0.38717887	      0.44861889	     -0.26345149	      0.03792977	      0.06997474	     -0.17964491	      0.43246242	      0.07853688	     -0.34438097	      0.05443321	      0.08510997	     -0.24729297	      0.45588574	      0.09633205	     -0.28403977	      0.13818923	      1.41794503	     -0.22255190	      0.26946142	      1.33824289	     -0.18314596	      0.26449290	      1.34221828	     -0.28957036	      0.25010341	      1.34816861	     -0.23252524	      0.32698041	      1.18333137	     -0.25386712	      0.23565677	      0.55060381	     -0.05181759	      0.50355852	      0.59935898	     -0.32552838	      0.25030944	      0.61868346	     -0.11471427	      0.41839007	      0.62340754	     -0.36340389	      0.23440553	      0.53531259	     -0.14279637	      0.42758507	      0.53567916	     -0.35927203	      0.09930390	      0.18262522	     -0.08473275	      0.43283010	      0.21833700	     -0.42983717	      0.07348529	      0.16182445	     -0.15749587	      0.42463905	      0.17959537	     -0.35963565	      0.16441065	      0.03991094	     -0.19666244	      0.57009625	      0.06818845	     -0.33085045
      0.46667000	      0.30069289	      0.90676047	     -0.25329624	     -0.93899570	     -2.57560223	     -1.19420354	     -9.92201880	      2.99353777	     17.20741452	     -4.59758380	     17.50865067	     23.95977891	     -0.19050467	      8.20379723	    -12.71884052	      2.55524005	     -5.21880338	      5.83368449	      2.54981161	      0.00000000	      0.00000000	      0.00000000	      0.00000000	      0.24889600	      0.87400400	     -0.24345800	      0.23580500	      0.87581700	     -0.15438900	      0.26198800	      0.87219200	     -0.33252600	      0.16951500	      0.46587300	     -0.18456000	      0.39347000	      0.46281300	     -0.31421900	      0.04690600	      0.07145300	     -0.21893400	      0.47508500	      0.08185500	     -0.31016400	      0.31859600	      0.94694900	     -0.24474000	      0.31578600	      0.94087200	     -0.12600100	      0.32140600	      0.95302600	     -0.36348000	      0.13215900	      0.98894400	     -0.21589100	      0.13844900	      0.98733500	     -0.30059800	      0.17444900	      0.45736200	     -0.12634900	      0.40755900	      0.47048400	     -0.37440700	      0.14298500	      0.46901700	     -0.23723900	      0.39132700	      0.44591000	     -0.26407000	      0.03820300	      0.07047100	     -0.17990500	      0.45609900	      0.07790300	     -0.34400000	      0.05426000	      0.08534300	     -0.24768100	      0.47866700	      0.09681000	     -0.28373900	      0.14742100	      1.41609500	     -0.22313300	      0.27806700	      1.33652700	     -0.18338700	      0.27341900	      1.34007000	     -0.29012000	      0.25907400	      1.34643600	     -0.23296100	      0.33549900	      1.18121300	     -0.25341500	      0.24183500	      0.54903100	     -0.05258300	      0.51009100	      0.59613800	     -0.32569900	      0.25705600	      0.61696700	     -0.11529800	      0.42594400	      0.62007400	     -0.36374400	      0.24050300	      0.53376900	     -0.14401800	      0.43384200	      0.53250800	     -0.35952500	      0.10169000	      0.18228900	     -0.08535500	      0.45155200	      0.21770300	     -0.42968600	      0.07514500	      0.16162000	     -0.15836400	      0.44475300	      0.17878600	     -0.35928100	      0.16443200	      0.03991000	     -0.19689600	      0.59430200	      0.07243600	     -0.32869800	     22.70991463	    642.83560188	    -31.98933862	      0.16921692	      0.00000000	     -0.19977393	      0.00000000	      0.00000000	      0.00000000	      0.56053595	      0.00000000	     -0.27309637	      0.00000000	      1.98752686	      0.00000000	      0.00000000	      0.00000000	      0.00000000	      0.24889648	      0.87400448	     -0.24345753	      0.23580512	      0.87581712	     -0.15438926	      0.26198784	      0.87219185	     -0.33252579	      0.16951539	      0.46587253	     -0.18455988	      0.39346966	      0.46281278	     -0.31421936	      0.04690599	      0.07145287	     -0.21893410	      0.47508511	      0.08185516	     -0.31016403	      0.31859607	      0.94694918	     -0.24474044	      0.31578639	      0.94087237	     -0.12600070	      0.32140574	      0.95302600	     -0.36348018	      0.13215894	      0.98894423	     -0.21589065	      0.13844945	      0.98733473	     -0.30059832	      0.17444925	      0.45736244	     -0.12634866	      0.40755934	      0.47048441	     -0.37440714	      0.14298497	      0.46901685	     -0.23723911	      0.39132673	      0.44591033	     -0.26407012	      0.03820315	      0.07047145	     -0.17990467	      0.45609871	      0.07790308	     -0.34400037	      0.05426043	      0.08534344	     -0.24768113	      0.47866675	      0.09681029	     -0.28373891	      0.14742106	      1.41609454	     -0.22313313	      0.27806658	      1.33652699	     -0.18338731	      0.27341884	      1.34007049	     -0.29011989	      0.25907445	      1.34643555	     -0.23296072	      0.33549851	      1.18121290	     -0.25341520	      0.24183504	      0.54903144	     -0.05258263	      0.51009089	      0.59613830	     -0.32569909	      0.25705567	      0.61696684	     -0.11529787	      0.42594442	      0.62007368	     -0.36374363	      0.24050303	      0.53376877	     -0.14401753	      0.43384156	      0.53250813	     -0.35952514	      0.10168959	      0.18228860	     -0.08535513	      0.45155230	      0.21770324	     -0.42968565	      0.07514454	      0.16161998	     -0.15836446	      0.44475305	      0.17878643	     -0.35928062	      0.16443188	      0.03991040	     -0.19689554	      0.59430218	      0.07243609	     -0.32869819
      0.47500000	      0.30866695	      0.90489211	     -0.25384758	     -1.21338772	     -2.62943197	     -1.11035120	    -10.34172193	      3.31213566	     17.39569577	     -5.16379269	     18.18554344	     23.76143615	     -0.53196318	      8.96829870	    -10.34628069	      1.94724262	     -5.48574969	      6.19570417	      2.41601200	      0.00000000	      0.00000000	      0.00000000	      0.00000000	      0.25743400	      0.87200500	     -0.24428100	      0.24365900	      0.87388300	     -0.15531700	      0.27120800	      0.87012700	     -0.33324500	      0.17564900	      0.46475700	     -0.18519800	      0.39918000	      0.45971100	     -0.31445700	      0.04709700	      0.07187400	     -0.21927700	      0.49705800	      0.08245800	     -0.30958600	      0.32689500	      0.94516600	     -0.24479800	      0.32350600	      0.93926500	     -0.12586900	      0.33028500	      0.95106800	     -0.36372700	      0.14019300	      0.98695400	     -0.21680300	      0.14714400	      0.98521800	     -0.30157300	      0.18041800	      0.45601200	     -0.12730300	      0.41535900	      0.46824200	     -0.37465900	      0.14887800	      0.46810300	     -0.23795000	      0.39654000	      0.44227100	     -0.26514900	      0.03851800	      0.07104000	     -0.18021600	      0.47844800	      0.07778400	     -0.34353900	      0.05471900	      0.08548200	     -0.24821500	      0.49928500	      0.09806900	     -0.28282000	      0.15663900	      1.41431000	     -0.22344200	      0.28665800	      1.33464600	     -0.18375000	      0.28253100	      1.33804600	     -0.29046800	      0.26796400	      1.34457800	     -0.23345600	      0.34405600	      1.17909600	     -0.25326100	      0.24825500	      0.54741300	     -0.05342400	      0.51667600	      0.59304800	     -0.32570800	      0.26386700	      0.61545300	     -0.11618700	      0.43283700	      0.61656000	     -0.36376800	      0.24696200	      0.53240700	     -0.14498400	      0.44003400	      0.52917700	     -0.35999900	      0.10398300	      0.18205800	     -0.08600700	      0.46926600	      0.21744000	     -0.42954900	      0.07583700	      0.16162700	     -0.15981700	      0.46391300	      0.17849900	     -0.35885400	      0.16449200	      0.03990800	     -0.19719300	      0.61690400	      0.07666700	     -0.32683800	     26.31666681	    662.28354724	    -32.81149042	      0.17082553	      0.00000000	     -0.20056128	      0.00000000	      0.00000000	      0.00000000	      0.56163281	      0.00000000	     -0.27358911	      0.00000000	      2.10875049	      0.00000000	      0.00000000	      0.00000000	      0.00000000	      0.25743386	      0.87200499	     -0.24428117	      0.24365929	      0.87388331	     -0.15531737	      0.27120844	      0.87012666	     -0.33324498	      0.17564873	      0.46475732	     -0.18519810	      0.39917955	      0.45971063	     -0.31445733	      0.04709703	      0.07187422	     -0.21927662	      0.49705800	      0.08245839	     -0.30958623	      0.32689548	      0.94516647	     -0.24479824	      0.32350567	      0.93926537	     -0.12586908	      0.33028531	      0.95106763	     -0.36372739	      0.14019325	      0.98695415	     -0.21680288	      0.14714365	      0.98521847	     -0.30157253	      0.18041760	      0.45601228	     -0.12730308	      0.41535926	      0.46824232	     -0.37465897	      0.14887793	      0.46810275	     -0.23795041	      0.39653990	      0.44227055	     -0.26514873	      0.03851831	      0.07103977	     -0.18021630	      0.47844779	      0.07778368	     -0.34353921	      0.05471933	      0.08548233	     -0.24821515	      0.49928537	      0.09806915	     -0.28281993	      0.15663911	      1.41430962	     -0.22344178	      0.28665820	      1.33464587	     -0.18374982	      0.28253105	      1.33804643	     -0.29046765	      0.26796359	      1.34457815	     -0.23345645	      0.34405595	      1.17909563	     -0.25326121	      0.24825500	      0.54741263	     -0.05342376	      0.51667625	      0.59304780	     -0.32570785	      0.26386687	      0.61545271	     -0.11618669	      0.43283671	      0.61656028	     -0.36376837	      0.24696189	      0.53240746	     -0.14498363	      0.44003403	      0.52917731	     -0.35999930	      0.10398272	      0.18205845	     -0.08600701	      0.46926591	      0.21743995	     -0.42954862	      0.07583655	      0.16162682	     -0.15981662	      0.46391320	      0.17849916	     -0.35885358	      0.16449168	      0.03990818	     -0.19719294	      0.61690366	      0.07666705	     -0.32683787
      0.48333000	      0.31691758	      0.90306658	     -0.25412429	     -1.48344093	     -2.73078678	     -1.01298910	    -10.86933572	      3.60571813	     17.56870757	     -5.54519262	     18.71465747	     23.54203812	     -0.91880992	      9.46983843	     -8.21329612	      1.40840907	     -5.76870775	      6.47580463	      2.69767020	      0.00000000	      0.00000000	      0.00000000	      0.00000000	      0.26620200	      0.86991100	     -0.24483800	      0.25167500	      0.87176500	     -0.15599300	      0.28072900	      0.86805600	     -0.33368200	      0.18145100	      0.46363100	     -0.18561300	      0.40667600	      0.45635900	     -0.31466200	      0.04746800	      0.07234900	     -0.21969100	      0.51756000	      0.08332800	     -0.30895900	      0.33530800	      0.94335400	     -0.24477400	      0.33127600	      0.93758700	     -0.12566300	      0.33933900	      0.94912100	     -0.36388500	      0.14839200	      0.98488500	     -0.21778500	      0.15590700	      0.98310400	     -0.30265400	      0.18657000	      0.45463900	     -0.12837900	      0.42328800	      0.46615400	     -0.37497000	      0.15373500	      0.46676600	     -0.23638600	      0.40395100	      0.43888000	     -0.26588100	      0.03890700	      0.07169900	     -0.18062400	      0.49930000	      0.07800100	     -0.34300500	      0.05569400	      0.08576300	     -0.24876100	      0.51883000	      0.09917600	     -0.28192900	      0.16605300	      1.41272000	     -0.22370400	      0.29582800	      1.33259000	     -0.18461100	      0.29171500	      1.33632000	     -0.29084400	      0.27687100	      1.34266200	     -0.23400900	      0.35279200	      1.17709000	     -0.25438100	      0.25493400	      0.54574900	     -0.05432000	      0.52341600	      0.59021300	     -0.32549800	      0.27064400	      0.61426900	     -0.11698900	      0.43880400	      0.61365200	     -0.36439900	      0.25330900	      0.53151200	     -0.14508600	      0.44685200	      0.52608200	     -0.36061100	      0.10609700	      0.18196400	     -0.08668400	      0.48589700	      0.21739700	     -0.42941600	      0.07408500	      0.16159500	     -0.16140900	      0.48196700	      0.17821700	     -0.35858000	      0.16457100	      0.03991900	     -0.19754600	      0.63782700	      0.08065200	     -0.32530800	     30.89277175	    682.72370514	    -33.92632127	      0.17209549	      0.00000000	     -0.20137762	      0.00000000	      0.00000000	      0.00000000	      0.56303156	      0.00000000	     -0.27425674	      0.00000000	      2.14825220	      0.00000000	      0.00000000	      0.00000000	      0.00000000	      0.26620203	      0.86991054	     -0.24483752	      0.25167528	      0.87176496	     -0.15599295	      0.28072876	      0.86805612	     -0.33368209	      0.18145095	      0.46363115	     -0.18561263	      0.40667641	      0.45635858	     -0.31466192	      0.04746772	      0.07234872	     -0.21969131	      0.51756006	      0.08332848	     -0.30895862	      0.33530781	      0.94335377	     -0.24477392	      0.33127621	      0.93758684	     -0.12566333	      0.33933941	      0.94912076	     -0.36388451	      0.14839168	      0.98488510	     -0.21778548	      0.15590729	      0.98310417	     -0.30265412	      0.18656971	      0.45463926	     -0.12837924	      0.42328796	      0.46615431	     -0.37497026	      0.15373549	      0.46676588	     -0.23638555	      0.40395150	      0.43888018	     -0.26588094	      0.03890678	      0.07169909	     -0.18062355	      0.49929982	      0.07800054	     -0.34300527	      0.05569379	      0.08576284	     -0.24876057	      0.51883036	      0.09917564	     -0.28192893	      0.16605285	      1.41272032	     -0.22370447	      0.29582807	      1.33258963	     -0.18461058	      0.29171547	      1.33631992	     -0.29084444	      0.27687070	      1.34266186	     -0.23400852	      0.35279194	      1.17709029	     -0.25438127	      0.25493431	      0.54574889	     -0.05431974	      0.52341592	      0.59021258	     -0.32549763	      0.27064431	      0.61426896	     -0.11698912	      0.43880418	      0.61365223	     -0.36439946	      0.25330889	      0.53151155	     -0.14508590	      0.44685221	      0.52608186	     -0.36061135	      0.10609737	      0.18196382	     -0.08668441	      0.48589733	      0.21739666	     -0.42941630	      0.07408494	      0.16159457	     -0.16140853	      0.48196685	      0.17821692	     -0.35858026	      0.16457140	      0.03991889	     -0.19754598	      0.63782668	      0.08065247	     -0.32530791
